<?xml version="1.0" encoding="UTF-8" standalone="no"?>
<!-- Created with Inkscape (http://www.inkscape.org/) -->

<svg
   width="457.53125"
   height="92.267609"
   viewBox="0 0 121.05514 24.412471"
   version="1.1"
   id="svg135"
   inkscape:version="1.3 (0e150ed6c4, 2023-07-21)"
   xml:space="preserve"
   sodipodi:docname="blendai_thumbnail_blendermarket.svg"
   xmlns:inkscape="http://www.inkscape.org/namespaces/inkscape"
   xmlns:sodipodi="http://sodipodi.sourceforge.net/DTD/sodipodi-0.dtd"
   xmlns="http://www.w3.org/2000/svg"
   xmlns:svg="http://www.w3.org/2000/svg"
   xmlns:rdf="http://www.w3.org/1999/02/22-rdf-syntax-ns#"
   xmlns:cc="http://creativecommons.org/ns#"
   xmlns:dc="http://purl.org/dc/elements/1.1/"><sodipodi:namedview
   id="namedview137"
   pagecolor="#ffffff"
   bordercolor="#666666"
   borderopacity="1.0"
   inkscape:showpageshadow="2"
   inkscape:pageopacity="0.0"
   inkscape:pagecheckerboard="0"
   inkscape:deskcolor="#d1d1d1"
   inkscape:document-units="mm"
   showgrid="false"
   inkscape:zoom="1.1213535"
   inkscape:cx="11535.613"
   inkscape:cy="223.39076"
   inkscape:window-width="2560"
   inkscape:window-height="1377"
   inkscape:window-x="-8"
   inkscape:window-y="-8"
   inkscape:window-maximized="1"
   inkscape:current-layer="g61"><inkscape:page
     x="1.3281247e-05"
     y="-2.1623143e-06"
     width="121.05514"
     height="24.412472"
     id="page5"
     margin="0"
     bleed="0" /></sodipodi:namedview><defs
   id="defs132" />&#10;<title
   id="title1">Blender logo</title>&#10;<desc
   id="desc1">A free and open source 3D computer graphics software</desc>&#10;    &#10;<metadata
   id="metadata4"><rdf:RDF><cc:Work
       rdf:about=""><dc:title>Blender logo</dc:title></cc:Work></rdf:RDF></metadata>&#10;    &#10;&#10;    &#10;&#10;    &#10;&#10;    &#10;&#10;    &#10;<g
   id="g2"
   inkscape:label="logo"
   transform="matrix(2.2485946,0,0,2.2485946,-188.19547,-298.65793)"
   style="display:inline"
   inkscape:export-filename="logo.svg"
   inkscape:export-xdpi="96"
   inkscape:export-ydpi="96"><path
     id="text1"
     style="font-weight:900;font-size:24px;line-height:1.25;font-family:Figtree;-inkscape-font-specification:'Figtree Heavy';letter-spacing:-1px;fill:#c35cff"
     d="M 793.56614,310.00947 787.13407,326.80947 H 791.83821 L 792.82126,324.1215 H 799.08711 L 800.07016,326.80947 H 804.77393 L 798.34224,310.00947 H 797.98204 793.92597 Z M 805.38218,310.00947 V 326.80947 H 809.82219 V 310.00947 Z M 795.95419,315.55492 797.65618,320.20937 H 794.25183 Z"
     transform="matrix(0.62909544,0,0,0.62909544,-371.92482,-62.091271)" /><path
     id="path1"
     style="font-weight:bold;font-size:24px;line-height:1.25;font-family:Figtree;-inkscape-font-specification:'Figtree Bold';letter-spacing:-1px;fill:#ffffff"
     d="M 788.3342,309.055 V 326.80909 H 791.33401 L 791.46239,325.10529 C 791.76754,325.5946 792.12776,326.00949 792.55812,326.32976 793.26212,326.84176 794.1177,327.09783 795.1257,327.09783 796.2297,327.09783 797.18197,326.84176 797.98197,326.32976 798.79797,325.81777 799.42998,325.08988 799.87798,324.14588 800.32598,323.20188 800.54955,322.08933 800.54955,320.80933 800.54955,319.51333 800.32598,318.40192 799.87798,317.47392 799.42998,316.52992 798.79797,315.80203 797.98197,315.29003 797.18197,314.77805 796.2297,314.52121 795.1257,314.52121 794.1177,314.52121 793.26212,314.77805 792.55812,315.29003 792.1466,315.59628 791.79941,315.98839 791.50238,316.4492 V 310.00639 Z M 843.01428,309.16996 839.84609,310.12174 V 316.41941 C 839.54917,315.97182 839.20203,315.58967 838.79003,315.29003 838.10203,314.77805 837.25432,314.52121 836.24632,314.52121 835.14233,314.52121 834.18218,314.77805 833.36618,315.29003 832.56618,315.80203 831.94237,316.52992 831.49437,317.47392 831.04637,318.40192 830.82183,319.51333 830.82183,320.80933 830.82183,322.08933 831.04637,323.20188 831.49437,324.14588 831.94237,325.08988 832.56618,325.81777 833.36618,326.32976 834.18218,326.84176 835.14233,327.09783 836.24632,327.09783 837.25432,327.09783 838.10203,326.84176 838.79003,326.32976 839.22192,326.01566 839.58292,325.61024 839.88835,325.13356 L 840.01447,326.80909 H 843.01428 Z M 801.63851,310.00983 V 326.80909 H 804.80573 V 310.00983 Z M 812.1343,314.52121 C 810.9183,314.52121 809.83851,314.79301 808.89451,315.33701 807.96651,315.86501 807.22994,316.60134 806.68594,317.54534 806.15794,318.48934 805.89373,319.57733 805.89373,320.80933 805.89373,322.04133 806.14975,323.1297 806.66175,324.0737 807.18974,325.01769 807.90993,325.7617 808.82193,326.3057 809.73392,326.8337 810.78193,327.09783 811.96593,327.09783 812.90992,327.09783 813.74977,326.96961 814.48577,326.71361 815.22176,326.45761 815.85442,326.08944 816.38242,325.60944 816.92642,325.11345 817.36569,324.52952 817.70169,323.85752 L 814.72575,322.70562 C 814.51775,323.13762 814.21419,323.48928 813.8142,323.76128 813.43021,324.03328 812.92571,324.16918 812.30171,324.16918 811.72571,324.16918 811.19794,324.0494 810.71794,323.8094 810.23794,323.5534 809.85408,323.18562 809.56608,322.70562 809.38457,322.40311 809.26677,322.04741 809.19965,321.64958 H 816.43016 817.99038 C 817.99038,320.12958 817.71766,318.84157 817.17366,317.78558 816.62966,316.71358 815.9098,315.90507 815.0138,315.36107 814.1338,314.80107 813.1743,314.52121 812.1343,314.52121 Z M 825.46184,314.52121 C 824.54985,314.52121 823.75851,314.76191 823.08651,315.24191 822.64592,315.54613 822.27305,315.95239 821.95626,316.44232 L 821.81433,314.80995 H 818.83839 V 326.80909 H 822.00658 V 320.52173 C 822.00658,319.51373 822.22228,318.7536 822.65428,318.2416 823.10228,317.7296 823.73397,317.48198 824.54997,317.49798 824.99797,317.49798 825.3897,317.60164 825.7257,317.80964 826.0617,318.00164 826.31804,318.32181 826.49404,318.76981 826.68604,319.21781 826.78176,319.84934 826.78176,320.66534 V 326.80909 H 829.94995 V 319.9454 C 829.96595,318.1054 829.5824,316.74522 828.79841,315.86522 828.03041,314.96922 826.91784,314.52121 825.46184,314.52121 Z M 812.01399,317.32955 C 812.57399,317.32955 813.06241,317.47351 813.47841,317.76151 813.89441,318.03351 814.21403,318.48959 814.43803,319.12959 814.44369,319.14432 814.44701,319.16275 814.45254,319.17772 H 809.35061 C 809.38055,319.07875 809.41015,318.97861 809.44641,318.88936 809.6704,318.36136 809.99789,317.96939 810.42989,317.71339 810.86189,317.45739 811.38999,317.32955 812.01399,317.32955 Z M 794.33382,317.44986 C 794.90981,317.44986 795.41398,317.59382 795.84598,317.88182 796.29398,318.15382 796.63817,318.54541 796.87817,319.05741 797.13417,319.56941 797.26202,320.15333 797.26202,320.80933 797.26202,321.46533 797.13417,322.04963 796.87817,322.56163 796.62217,323.07363 796.27011,323.47328 795.82211,323.76128 795.39011,324.04928 794.88595,324.19324 794.30995,324.19324 793.76595,324.19324 793.27817,324.04928 792.84617,323.76128 792.43017,323.47328 792.10204,323.07363 791.86204,322.56163 791.62204,322.04963 791.50238,321.46533 791.50238,320.80933 791.50238,320.15333 791.62204,319.57747 791.86204,319.08147 792.10204,318.56947 792.43804,318.16982 792.87004,317.88182 793.30203,317.59382 793.78982,317.44986 794.33382,317.44986 Z M 837.03853,317.44986 C 837.59853,317.44986 838.08599,317.59382 838.50199,317.88182 838.93399,318.15382 839.27031,318.54541 839.51031,319.05741 839.68905,319.43873 839.80047,319.8604 839.84609,320.3216 V 321.29744 C 839.80047,321.75863 839.68905,322.18031 839.51031,322.56163 839.27031,323.07363 838.93399,323.47328 838.50199,323.76128 838.08599,324.04928 837.6064,324.19324 837.0624,324.19324 836.48641,324.19324 835.97405,324.04928 835.52605,323.76128 835.09405,323.47328 834.75018,323.07363 834.49418,322.56163 834.23818,322.04963 834.11033,321.46533 834.11033,320.80933 834.11033,320.15333 834.23818,319.56941 834.49418,319.05741 834.75018,318.54541 835.09405,318.15382 835.52605,317.88182 835.95805,317.59382 836.46253,317.44986 837.03853,317.44986 Z"
     transform="matrix(0.71247653,0,0,0.60172199,-477.9749,-53.145366)" /></g></svg>
